<svg width="28" height="28" viewBox="0 0 28 28" fill="none" xmlns="http://www.w3.org/2000/svg">
<mask id="path-1-inside-1_624_7553" fill="white">
<path fill-rule="evenodd" clip-rule="evenodd" d="M23.685 10.9101C23.686 10.9101 23.6864 10.9089 23.6857 10.9082L14.6374 3.42532C14.2675 3.11948 13.7326 3.11948 13.3628 3.42532L4.31432 10.9083C4.31361 10.9089 4.31403 10.9101 4.31495 10.9101C4.3155 10.9101 4.31594 10.9105 4.31594 10.9111V23.8041C4.31594 24.3563 4.76365 24.8041 5.31594 24.8041H22.684C23.2363 24.8041 23.684 24.3563 23.684 23.8041V10.9111C23.684 10.9105 23.6844 10.9101 23.685 10.9101Z"/>
</mask>
<path d="M4.31432 10.9083L5.58892 12.4496L4.31432 10.9083ZM23.6857 10.9082L24.9603 9.36701L23.6857 10.9082ZM14.6374 3.42532L13.3628 4.96656L14.6374 3.42532ZM13.3628 3.42532L12.0882 1.88408L13.3628 3.42532ZM13.3628 4.96656L22.4111 12.4495L24.9603 9.36701L15.9119 1.88409L13.3628 4.96656ZM5.58892 12.4496L14.6374 4.96656L12.0882 1.88408L3.03973 9.36709L5.58892 12.4496ZM6.31594 23.8041V10.9111H2.31594V23.8041H6.31594ZM22.684 22.8041H5.31594V26.8041H22.684V22.8041ZM21.684 10.9111V23.8041H25.684V10.9111H21.684ZM25.684 10.9111C25.684 12.0151 24.789 12.9101 23.685 12.9101V8.91007C22.5799 8.91007 21.684 9.80596 21.684 10.9111H25.684ZM22.684 26.8041C24.3408 26.8041 25.684 25.4609 25.684 23.8041H21.684C21.684 23.2518 22.1317 22.8041 22.684 22.8041V26.8041ZM2.31594 23.8041C2.31594 25.4609 3.65908 26.8041 5.31594 26.8041V22.8041C5.86822 22.8041 6.31594 23.2518 6.31594 23.8041H2.31594ZM4.31495 12.9101C3.20994 12.9101 2.31594 12.0141 2.31594 10.9111H6.31594C6.31594 9.80693 5.42105 8.91007 4.31495 8.91007V12.9101ZM3.03973 9.36709C1.59462 10.5622 2.4397 12.9101 4.31495 12.9101V8.91007C6.18835 8.91007 7.0326 11.2556 5.58892 12.4496L3.03973 9.36709ZM22.4111 12.4495C20.9658 11.2542 21.8138 8.91007 23.685 8.91007V12.9101C25.5582 12.9101 26.407 10.5635 24.9603 9.36701L22.4111 12.4495ZM15.9119 1.88409C14.8025 0.966559 13.1976 0.966552 12.0882 1.88408L14.6374 4.96656C14.2675 5.2724 13.7326 5.2724 13.3628 4.96656L15.9119 1.88409Z" fill="#828282" mask="url(#path-1-inside-1_624_7553)"/>
</svg>