<svg width="20" height="23" viewBox="0 0 20 23" xmlns="http://www.w3.org/2000/svg">
<path fill-rule="evenodd" clip-rule="evenodd" d="M14.3448 7.32243C14.3448 9.72198 12.3996 11.6672 10 11.6672C7.60049 11.6672 5.65527 9.72198 5.65527 7.32243C5.65527 4.92288 7.60049 2.97766 10 2.97766C12.3996 2.97766 14.3448 4.92288 14.3448 7.32243ZM13.1845 12.8114C12.2485 13.3555 11.1607 13.6672 10 13.6672C8.83937 13.6672 7.75149 13.3555 6.81553 12.8113C4.44363 13.9855 2.81274 16.4305 2.81274 19.2564V20.6163H17.1872V19.2564C17.1872 16.4305 15.5564 13.9856 13.1845 12.8114ZM14.8284 11.4388C15.774 10.3307 16.3448 8.89325 16.3448 7.32243C16.3448 3.81831 13.5042 0.977661 10 0.977661C6.49592 0.977661 3.65527 3.81831 3.65527 7.32243C3.65527 8.89323 4.2261 10.3307 5.17163 11.4387C2.55552 13.0579 0.812744 15.9536 0.812744 19.2564V22.6163H19.1872V19.2564C19.1872 15.9537 17.4445 13.058 14.8284 11.4388Z" />
</svg>
