<svg width="22" height="22" viewBox="0 0 22 22" fill="none" xmlns="http://www.w3.org/2000/svg">
<path fill="#828282" d="M21.7454 3.06772C21.5844 2.87345 21.3452 2.7714 21.0929 2.7714H3.99718V1.01348C3.99718 0.545484 3.63368 0.180695 3.16569 0.180695H0.907182C0.439225 0.180707 0.0598145 0.565582 0.0598145 1.03359C0.0598145 1.5016 0.439225 1.88647 0.907182 1.88647H2.30424V18.5754C2.30424 18.5815 2.31209 18.5874 2.31218 18.5935C2.31103 18.6289 2.31303 18.6642 2.31303 18.6999C2.31303 20.42 3.71425 21.8193 5.43441 21.8193C6.86085 21.8193 8.06759 20.8679 8.43782 19.5469H12.8227C13.1929 20.8679 14.398 21.8193 15.8244 21.8193C17.5445 21.8193 18.944 20.4199 18.944 18.6998C18.944 16.9796 17.5445 15.581 15.8244 15.581C14.398 15.581 13.193 16.5843 12.8227 17.854H8.43783C8.06761 16.5843 6.85467 15.581 5.42828 15.581C4.91579 15.581 4.45889 15.7053 3.99718 15.9252V14.2385C4.12543 14.2621 4.266 14.3014 4.39732 14.3014H17.9889C19.0775 14.3014 20.0024 13.5308 20.2903 12.4035C20.2948 12.3862 20.2986 12.3622 20.3019 12.3446L21.9254 3.76399C21.9724 3.51605 21.9063 3.26202 21.7454 3.06772ZM15.8244 17.275C16.61 17.275 17.2493 17.9142 17.2493 18.6999C17.2493 19.4855 16.61 20.1247 15.8244 20.1247C15.0388 20.1247 14.3995 19.4855 14.3995 18.6999C14.3995 17.9142 15.0388 17.275 15.8244 17.275ZM5.43618 17.275C6.22183 17.275 6.861 17.9142 6.861 18.6999C6.861 19.4855 6.22183 20.1247 5.43618 20.1247C4.6505 20.1247 4.01127 19.4855 4.01127 18.6999C4.01129 17.9142 4.6505 17.275 5.43618 17.275ZM18.6425 12.0098C18.5967 12.173 18.4347 12.5956 17.9889 12.5956H4.39732C4.18183 12.5956 3.99718 12.4046 3.99718 12.1805V4.46435H20.0701L18.6425 12.0098Z" />
</svg>
