<svg width="26" height="24" viewBox="0 0 26 24" fill="none" xmlns="http://www.w3.org/2000/svg">
<path d="M21.7451 4.56772C21.5841 4.37345 21.3449 4.2714 21.0926 4.2714H3.99694V2.51348C3.99694 2.04548 3.63344 1.68069 3.16545 1.68069H0.906937C0.438981 1.68071 0.0595703 2.06558 0.0595703 2.53359C0.0595703 3.0016 0.438981 3.38647 0.906937 3.38647H2.304V20.0754C2.304 20.0815 2.31185 20.0874 2.31194 20.0935C2.31078 20.1289 2.31278 20.1642 2.31278 20.1999C2.31278 21.92 3.71401 23.3193 5.43416 23.3193C6.86061 23.3193 8.06735 22.3679 8.43758 21.0469H12.8225C13.1927 22.3679 14.3977 23.3193 15.8242 23.3193C17.5443 23.3193 18.9437 21.9199 18.9437 20.1998C18.9437 18.4796 17.5443 17.081 15.8242 17.081C14.3977 17.081 13.1927 18.0843 12.8225 19.354H8.43759C8.06736 18.0843 6.85442 17.081 5.42803 17.081C4.91555 17.081 4.45865 17.2053 3.99694 17.4252V15.7385C4.12519 15.7621 4.26575 15.8014 4.39707 15.8014H17.9887C19.0773 15.8014 20.0021 15.0308 20.2901 13.9035C20.2945 13.8862 20.2984 13.8622 20.3017 13.8446L21.9252 5.26399C21.9721 5.01605 21.9061 4.76202 21.7451 4.56772ZM15.8242 18.775C16.6098 18.775 17.249 19.4142 17.249 20.1999C17.249 20.9855 16.6098 21.6247 15.8242 21.6247C15.0385 21.6247 14.3993 20.9855 14.3993 20.1999C14.3993 19.4142 15.0385 18.775 15.8242 18.775ZM5.43593 18.775C6.22158 18.775 6.86076 19.4142 6.86076 20.1999C6.86076 20.9855 6.22158 21.6247 5.43593 21.6247C4.65026 21.6247 4.01103 20.9855 4.01103 20.1999C4.01104 19.4142 4.65026 18.775 5.43593 18.775ZM18.6423 13.5098C18.5965 13.673 18.4345 14.0956 17.9887 14.0956H4.39707C4.18158 14.0956 3.99694 13.9046 3.99694 13.6805V5.96435H20.0699L18.6423 13.5098Z"/>
<circle cx="20.5234" cy="5.07011" r="4.48437" fill="#E0261C"/>
</svg>
