<svg width="18" height="18" viewBox="0 0 18 18" fill="none" xmlns="http://www.w3.org/2000/svg">
<circle opacity="0.2" cx="8.86084" cy="9.25" r="8.5" fill="white"/>
<path d="M6.6988 5.67363C6.30828 5.28311 5.67511 5.28311 5.28459 5.67363C4.89407 6.06416 4.89407 6.69732 5.28459 7.08785L6.6988 5.67363ZM11.0232 12.8264C11.4137 13.2169 12.0469 13.2169 12.4374 12.8264C12.8279 12.4359 12.8279 11.8027 12.4374 11.4122L11.0232 12.8264ZM5.28459 7.08785L11.0232 12.8264L12.4374 11.4122L6.6988 5.67363L5.28459 7.08785Z" fill="white"/>
<path d="M5.28459 11.4122C4.89407 11.8027 4.89407 12.4359 5.28459 12.8264C5.67512 13.2169 6.30828 13.2169 6.69881 12.8264L5.28459 11.4122ZM12.4374 7.08782C12.8279 6.69729 12.8279 6.06413 12.4374 5.6736C12.0468 5.28308 11.4137 5.28308 11.0232 5.67361L12.4374 7.08782ZM6.69881 12.8264L12.4374 7.08782L11.0232 5.67361L5.28459 11.4122L6.69881 12.8264Z" fill="white"/>
</svg>
