<svg width="202" height="115" viewBox="0 0 202 115" fill="none" xmlns="http://www.w3.org/2000/svg">
<g clip-path="url(#clip0_132_35264)">
<path d="M17.4992 76.7294H6.24833V79.1303H16.1235V83.9321H6.23887V88.3902H0.5V71.9277H17.4992V76.7294Z" fill="white"/>
<path d="M43.8961 71.9277V88.3902H38.1548V71.9277H43.8961Z" fill="white"/>
<path d="M70.761 83.5884H81.5533V88.3902H65.0198V71.9277H70.761V83.5884Z" fill="white"/>
<path d="M116.681 76.7294H109.68V88.3902H103.939V76.7294H96.9358V71.9277H116.681V76.7294Z" fill="white"/>
<path d="M152.502 71.9277H158.241V88.3902H152.502V82.5598H143.088V88.3902H137.347V71.9277H143.088V77.7557H152.502V71.9277Z" fill="white"/>
<path d="M194.383 71.9277H201.5L192.615 82.9035V88.3902H186.874V82.9035L177.989 71.9277H185.106L189.746 78.1017L194.383 71.9277Z" fill="white"/>
<path d="M70.4206 105.801H71.7915L72.9166 108.906L74.0559 105.801H75.4079L73.8432 109.873L75.2141 113.235L78.0788 105.766H79.6624L75.8806 114.913H74.6397L72.9308 110.815L71.2125 114.913H69.9716L66.1898 105.766H67.7663L70.6381 113.237L72.009 109.876L70.4206 105.801Z" fill="white"/>
<path d="M87.226 114.911V105.766H88.6749V114.913L87.226 114.911Z" fill="white"/>
<path d="M98.6588 108.468V114.911H97.2099V105.766H98.3492L103.601 112.357V105.766H105.062V114.901H103.859L98.6588 108.468Z" fill="white"/>
<path d="M120.028 113.769C119.69 114.143 119.278 114.444 118.816 114.65C118.355 114.856 117.856 114.964 117.35 114.967C116.76 114.972 116.176 114.842 115.644 114.586C115.123 114.338 114.657 113.99 114.273 113.562C113.88 113.124 113.57 112.618 113.361 112.07C113.14 111.502 113.028 110.899 113.03 110.29C113.028 109.686 113.14 109.087 113.361 108.525C113.57 107.983 113.88 107.486 114.273 107.058C114.662 106.636 115.132 106.296 115.656 106.058C116.285 105.789 116.968 105.665 117.652 105.696C118.337 105.727 119.005 105.912 119.608 106.237C120.185 106.583 120.652 107.086 120.952 107.687L119.844 108.494C119.621 108.025 119.261 107.634 118.811 107.374C118.37 107.124 117.87 106.995 117.362 106.999C116.951 106.993 116.545 107.088 116.18 107.277C115.831 107.457 115.522 107.707 115.275 108.012C115.019 108.327 114.823 108.687 114.698 109.073C114.564 109.481 114.496 109.908 114.497 110.337C114.497 110.781 114.577 111.221 114.734 111.636C114.874 112.024 115.085 112.382 115.355 112.693C115.619 112.99 115.941 113.23 116.301 113.399C116.669 113.577 117.074 113.667 117.483 113.663C117.948 113.664 118.407 113.553 118.82 113.341C119.294 113.089 119.71 112.743 120.042 112.324V111.345H118.116V110.285H121.26V114.911H120.042L120.028 113.769Z" fill="white"/>
<path d="M134.801 107.915C134.689 107.799 134.563 107.697 134.425 107.611C134.243 107.495 134.051 107.394 133.851 107.31C133.617 107.209 133.374 107.13 133.125 107.075C132.86 107.015 132.589 106.985 132.317 106.985C131.705 106.985 131.256 107.096 130.965 107.32C130.823 107.428 130.71 107.569 130.635 107.731C130.559 107.892 130.524 108.069 130.532 108.247C130.524 108.439 130.572 108.63 130.669 108.795C130.776 108.952 130.919 109.08 131.088 109.167C131.312 109.289 131.55 109.384 131.797 109.452C132.083 109.534 132.414 109.622 132.794 109.716C133.221 109.815 133.642 109.94 134.054 110.09C134.393 110.209 134.711 110.378 135 110.591C135.254 110.784 135.459 111.033 135.6 111.319C135.75 111.648 135.823 112.007 135.813 112.368C135.824 112.783 135.733 113.195 135.548 113.567C135.378 113.895 135.13 114.176 134.825 114.386C134.5 114.606 134.138 114.766 133.756 114.856C133.329 114.958 132.891 115.008 132.452 115.005C131.764 115.006 131.08 114.9 130.426 114.689C129.788 114.486 129.191 114.174 128.66 113.767L129.32 112.531C129.465 112.671 129.623 112.796 129.792 112.905C130.026 113.053 130.273 113.18 130.53 113.284C130.826 113.406 131.131 113.505 131.442 113.581C131.776 113.663 132.119 113.704 132.463 113.703C132.923 113.729 133.381 113.627 133.785 113.406C133.935 113.316 134.058 113.187 134.142 113.033C134.225 112.879 134.265 112.706 134.257 112.531C134.265 112.324 134.203 112.12 134.082 111.952C133.947 111.782 133.777 111.643 133.584 111.545C133.331 111.415 133.067 111.309 132.794 111.229C132.485 111.135 132.13 111.036 131.733 110.933C131.327 110.83 130.928 110.703 130.537 110.554C130.231 110.439 129.945 110.276 129.691 110.071C129.473 109.891 129.298 109.664 129.18 109.407C129.056 109.117 128.996 108.803 129.005 108.487C128.997 108.075 129.085 107.666 129.263 107.294C129.432 106.954 129.674 106.655 129.972 106.418C130.286 106.174 130.644 105.993 131.026 105.884C131.456 105.76 131.901 105.699 132.348 105.702C132.934 105.697 133.517 105.797 134.068 105.999C134.561 106.18 135.026 106.427 135.451 106.733L134.801 107.915Z" fill="white"/>
<path d="M120.976 4.2651C120.976 6.61891 112.049 8.53255 101.037 8.53255C90.0245 8.53255 81.0947 6.62126 81.0947 4.2651C81.0947 1.90894 90.0221 0 101.037 0C112.051 0 120.976 1.91129 120.976 4.2651ZM101.037 0.85443C92.7899 0.85443 86.1056 2.38205 86.1056 4.2651C86.1056 6.14814 92.7899 7.67812 101.037 7.67812C109.283 7.67812 115.965 6.1505 115.965 4.2651C115.965 2.3797 109.281 0.85443 101.037 0.85443Z" fill="white"/>
<path d="M134.81 29.0319C134.81 29.0319 135.179 26.8781 133.326 20.5346C131.409 13.9793 130.927 7.84289 135.971 5.56911C141.015 3.29534 150.297 5.2184 158.785 4.51225C167.688 3.7708 176.148 0.0564927 179.28 0.534316C181.024 0.800296 181.438 7.08026 169.589 10.9358C163.961 12.7671 158.163 19.5813 155.256 21.6009C155.256 21.6009 163.973 32.6803 162.857 43.6773C161.741 54.6743 153.426 51.4448 146.971 50.5245C140.516 49.6042 134.444 50.2538 127.656 52.4287C120.867 54.6036 111.857 55.2886 106.65 47.6999C101.443 40.1112 101.802 33.4005 105.733 27.13C110.021 20.2875 122.212 27.7538 126.167 28.7918C130.121 29.8298 134.81 29.0319 134.81 29.0319ZM135.567 32.0071C135.184 30.8773 131.936 32.4778 125.068 30.9479C118.199 29.4179 115.734 25.713 110.524 26.7604C105.315 27.8079 103.736 36.9995 106.844 43.1359C109.952 49.2723 115.251 53.8975 127.54 49.9149C139.828 45.9322 145.444 47.827 152.923 48.9074C160.401 49.9878 160.181 45.6639 160.333 43.0935C160.484 40.5232 160.569 34.6669 154.629 25.2187C148.69 15.7705 140.01 11.5666 140.748 10.9923C141.485 10.418 152.821 19.3648 152.821 19.3648C154.781 19.3177 160.34 14.3017 160.34 14.3017C158.109 14.9726 153.599 13.6356 153.599 13.6356C159.685 13.9016 164.788 10.9005 164.788 10.9005C161.507 11.4324 159.865 9.30932 159.865 9.30932C164.138 10.0155 170.17 8.20302 170.17 8.20302C167.487 8.3772 165.129 7.36977 165.176 7.2615C165.223 7.15322 166.232 7.61693 170.123 6.6448C174.013 5.67268 176.256 4.34278 176.977 3.2765C177.698 2.21023 172.598 4.55698 162.796 6.57184C152.994 8.5867 150.046 6.65422 142.024 7.16029C134.002 7.66636 133.198 8.6526 136.056 21.2831C138.914 33.9137 135.174 36.3004 135.174 36.3004C135.174 36.3004 135.95 33.144 135.567 32.0142V32.0071Z" fill="white"/>
<path d="M148.756 21.5326C148.828 21.7524 148.912 21.9685 149.006 22.1799C150.736 25.5271 152.315 28.933 153.516 32.5037C154.275 34.7752 154.906 37.0725 154.873 39.4851C154.859 40.5185 154.726 41.54 154.14 42.4509C153.313 43.7432 152.096 44.2328 150.595 43.8185C148.087 43.1024 145.503 42.6821 142.896 42.5663C139.292 42.4297 135.739 42.8817 132.225 43.6302C129.436 44.2233 126.675 44.9766 123.864 45.4403C119.73 46.1545 115.474 45.4587 111.786 43.4654C111.198 43.1547 110.652 42.7593 110.085 42.4203C109.95 42.3379 109.808 42.272 109.52 42.1238C109.567 42.3339 109.632 42.5394 109.716 42.7381C110.898 44.8189 112.233 46.7631 114.476 47.9165C116.284 48.858 118.22 49.0934 120.22 48.9922C123.472 48.818 126.602 48.0271 129.762 47.2762C132.95 46.516 136.16 45.8757 139.453 45.7345C141.847 45.6427 144.245 45.8004 146.607 46.2053C148.604 46.5348 150.59 46.9279 152.587 47.2668C156.005 47.8459 158.146 45.7863 158.496 42.924C158.941 39.2192 158.113 35.6955 156.605 32.306C155.212 29.2494 153.369 26.4172 151.136 23.9029C150.488 23.1638 149.852 22.4153 149.207 21.6762C149.121 21.5897 149.028 21.5109 148.928 21.4408L148.756 21.5326Z" fill="white"/>
<path d="M108.428 39.1532C108.475 38.2894 108.534 37.4255 108.562 36.5641C108.619 34.8269 108.619 33.0757 109.182 31.4116C109.503 30.47 110.011 29.5756 110.43 28.6553C110.478 28.5221 110.514 28.3851 110.538 28.2457C110.379 28.2286 110.219 28.2438 110.066 28.2904C108.785 29.0107 108.019 30.1523 107.529 31.4657C106.584 33.9725 107.021 36.4275 107.945 38.8449C108.022 38.9775 108.117 39.0981 108.229 39.2027L108.428 39.1532Z" fill="white"/>
<path d="M114.254 28.6835C113.434 28.3375 112.713 28.5588 112.025 28.8836C111.425 29.1376 110.907 29.5536 110.531 30.0847C110.156 30.6158 109.936 31.2408 109.898 31.8894C109.917 32.0707 109.969 32.2471 110.051 32.4096C110.234 32.3816 110.409 32.3201 110.569 32.2283C111.737 31.1833 112.888 30.124 114.037 29.0625C114.127 28.9471 114.2 28.8195 114.254 28.6835Z" fill="white"/>
<path d="M142.235 8.60081C142.235 8.60081 138.006 7.52983 136.5 10.1708C135.555 11.8444 135.139 13.8851 136.931 19.2377C138.722 24.5902 140.379 29.9475 139.266 32.732C139.266 32.732 141.707 30.8043 141.577 27.5207C141.447 24.2371 137.219 15.3398 137.864 12.341C138.509 9.34226 139.869 8.60081 142.235 8.60081Z" fill="white"/>
<path d="M161.174 10.9852C161.174 10.9852 158.513 11.1947 157.123 10.9476C155.733 10.7004 155.194 10.6086 155.194 10.6086C155.194 10.6086 155.464 12.454 157.759 12.4917C160.054 12.5293 161.945 11.6537 161.777 11.2206C161.759 11.1614 161.727 11.107 161.685 11.0616C161.643 11.0161 161.591 10.9808 161.533 10.9582C161.475 10.9355 161.412 10.9262 161.35 10.9309C161.288 10.9356 161.228 10.9542 161.174 10.9852Z" fill="white"/>
<path d="M158.484 15.1138C158.484 15.1138 158.248 15.6128 155.194 15.1138C152.14 14.6148 151.306 13.7933 151.306 13.7933C151.306 13.7933 150.848 16.1613 151.987 17.6489C153.814 20.0403 158.484 15.1138 158.484 15.1138Z" fill="white"/>
<path d="M75.8357 28.7965C79.79 27.7585 91.9816 20.2922 96.2692 27.1323C100.2 33.4052 100.559 40.116 95.3521 47.7046C90.1451 55.2933 81.1302 54.6084 74.3466 52.4334C67.563 50.2585 61.4862 49.6089 55.0311 50.5292C48.576 51.4495 40.2632 54.6884 39.1452 43.6843C38.0272 32.6803 46.749 21.6056 46.749 21.6056C43.8394 19.5884 38.0414 12.7718 32.416 10.9429C20.5624 7.08732 20.976 0.80736 22.7251 0.539026C25.8569 0.0682645 34.3187 3.77551 43.2201 4.51696C51.7078 5.22311 60.9874 3.30004 66.0338 5.57382C71.0801 7.8476 70.5955 13.9863 68.6786 20.5417C66.8256 26.8852 67.1943 29.0366 67.1943 29.0366C67.1943 29.0366 71.8814 29.8369 75.8357 28.7965ZM66.8208 36.2698C66.8208 36.2698 63.0816 33.876 65.9534 21.2643C68.8252 8.6526 68.005 7.65694 59.9829 7.14146C51.9608 6.62597 49.0015 8.55374 39.2114 6.55301C29.4213 4.55227 24.3324 2.20082 25.0438 3.25768C25.7553 4.31454 27.9984 5.6515 31.8865 6.62597C35.7747 7.60045 36.7863 7.12498 36.8336 7.24267C36.8808 7.36036 34.522 8.37015 31.8392 8.18419C31.8392 8.18419 37.8736 9.99192 42.1446 9.29049C42.1446 9.29049 40.4901 11.4089 37.2212 10.8817C37.2212 10.8817 42.3266 13.8828 48.4106 13.6168C48.4106 13.6168 43.9008 14.9537 41.6695 14.2829C41.6695 14.2829 47.2288 19.2989 49.1882 19.346C49.1882 19.346 60.5336 10.4015 61.2616 10.9735C61.9896 11.5454 53.3175 15.7493 47.3824 25.1999C41.4474 34.6504 41.5254 40.4996 41.6766 43.0747C41.8279 45.6498 41.6081 49.9808 49.0771 48.9074C56.5462 47.8341 62.1716 45.9322 74.4624 49.9149C86.7533 53.8975 92.0501 49.2699 95.1583 43.1335C98.2665 36.9972 96.6805 27.815 91.4805 26.7675C86.2805 25.7201 83.8058 29.4344 76.9371 30.9549C70.0685 32.4755 66.8208 30.8843 66.4379 32.0142C66.055 33.144 66.8256 36.2722 66.8256 36.2722L66.8208 36.2698Z" fill="white"/>
<path d="M53.0906 21.4479C52.9913 21.5186 52.898 21.5973 52.8117 21.6833C52.1664 22.4224 51.5306 23.1709 50.8853 23.91C48.65 26.4283 46.8057 29.2654 45.4135 32.3272C43.8984 35.7167 43.0712 39.2403 43.5226 42.9452C43.8654 45.8075 46.0068 47.867 49.4317 47.288C51.4289 46.9491 53.4144 46.556 55.4116 46.2264C57.7735 45.8216 60.1715 45.6638 62.5663 45.7557C65.8589 45.8969 69.0687 46.5371 72.2572 47.2974C75.4055 48.0483 78.5468 48.8392 81.8015 49.0134C83.7987 49.1216 85.7346 48.8745 87.5427 47.9377C89.7858 46.7749 91.1189 44.8306 92.3031 42.7593C92.3864 42.5606 92.4521 42.3551 92.4992 42.1449C92.2132 42.2956 92.0691 42.3591 91.9367 42.4415C91.3671 42.7899 90.8211 43.1759 90.2349 43.4866C86.5459 45.4797 82.2897 46.1755 78.1544 45.4615C75.3441 44.9907 72.5834 44.2445 69.7943 43.6514C66.2796 42.9029 62.7271 42.4509 59.1225 42.5875C56.5161 42.7033 53.9323 43.1236 51.4242 43.8397C49.921 44.2563 48.7013 43.7644 47.8788 42.4721C47.2926 41.5612 47.1697 40.5396 47.1461 39.5063C47.113 37.0937 47.7441 34.7987 48.5028 32.5249C49.6846 28.9542 51.2824 25.5482 53.0126 22.2011C53.1075 21.9907 53.1911 21.7754 53.2631 21.5562L53.0906 21.4479Z" fill="white"/>
<path d="M93.7614 39.2003C93.8748 39.0972 93.9706 38.9763 94.045 38.8425C94.9692 36.4252 95.3994 33.9702 94.461 31.4634C93.9718 30.1499 93.206 29.0083 91.9249 28.2881C91.772 28.2415 91.6111 28.2262 91.4521 28.2433C91.4764 28.3827 91.5128 28.5198 91.5609 28.6529C91.9792 29.5733 92.4874 30.4606 92.8089 31.4069C93.3738 33.0734 93.3714 34.8246 93.4281 36.5617C93.4565 37.4256 93.5156 38.2894 93.5629 39.1509L93.7614 39.2003Z" fill="white"/>
<path d="M87.954 29.0625C89.1027 30.124 90.2538 31.1809 91.4214 32.2283C91.5812 32.3201 91.7568 32.3816 91.9391 32.4096C92.0216 32.2469 92.0736 32.0706 92.0927 31.8894C92.0544 31.2408 91.835 30.6158 91.4591 30.0847C91.0833 29.5536 90.5659 29.1376 89.9654 28.8836C89.2776 28.5588 88.5473 28.3375 87.7389 28.6835C87.7912 28.8198 87.8637 28.9476 87.954 29.0625Z" fill="white"/>
<path d="M59.7654 8.60081C59.7654 8.60081 63.9939 7.52983 65.4996 10.1708C66.445 11.8444 66.861 13.8851 65.0694 19.2377C63.2778 24.5902 61.6209 29.9475 62.7365 32.732C62.7365 32.732 60.2925 30.8043 60.4225 27.5207C60.5525 24.2371 64.781 15.3398 64.1358 12.341C63.4905 9.34226 62.1314 8.60081 59.7654 8.60081Z" fill="white"/>
<path d="M40.8257 10.9852C40.8257 10.9852 43.4872 11.1947 44.8793 10.9476C46.2715 10.7004 46.8081 10.6086 46.8081 10.6086C46.8081 10.6086 46.5386 12.454 44.2435 12.4917C41.9485 12.5293 40.0576 11.6537 40.2372 11.2206C40.2556 11.1631 40.2865 11.1104 40.3278 11.0661C40.369 11.0219 40.4196 10.9873 40.4758 10.9649C40.532 10.9424 40.5926 10.9325 40.6531 10.9361C40.7136 10.9396 40.7725 10.9564 40.8257 10.9852Z" fill="white"/>
<path d="M43.5155 15.1138C43.5155 15.1138 43.7519 15.6128 46.8057 15.1138C49.8595 14.6148 50.6962 13.7933 50.6962 13.7933C50.6962 13.7933 51.1524 16.1613 50.0131 17.6489C48.1861 20.0403 43.5155 15.1138 43.5155 15.1138Z" fill="white"/>
</g>
<defs>
<clipPath id="clip0_132_35264">
<rect width="201" height="115" fill="white" transform="translate(0.5)"/>
</clipPath>
</defs>
</svg>
