<svg width="21" height="22" viewBox="0 0 21 22" xmlns="http://www.w3.org/2000/svg">
<path fill-rule="evenodd" fill="#828282" clip-rule="evenodd" d="M14.8148 9.25211C14.8148 12.7556 11.9746 15.5957 8.47117 15.5957C4.96769 15.5957 2.12756 12.7556 2.12756 9.25211C2.12756 5.74864 4.96769 2.90851 8.47117 2.90851C11.9746 2.90851 14.8148 5.74864 14.8148 9.25211ZM13.6037 15.8308C12.1882 16.9367 10.4066 17.5957 8.47117 17.5957C3.86312 17.5957 0.127563 13.8602 0.127563 9.25211C0.127563 4.64407 3.86312 0.908508 8.47117 0.908508C13.0792 0.908508 16.8148 4.64407 16.8148 9.25211C16.8148 11.204 16.1446 12.9993 15.0217 14.4205L20.5796 19.9784C20.9701 20.3689 20.9701 21.002 20.5796 21.3926C20.1891 21.7831 19.5559 21.7831 19.1654 21.3926L13.6037 15.8308Z"/>
</svg>
