<svg width="20" height="22" viewBox="0 0 20 22" fill="none" xmlns="http://www.w3.org/2000/svg">
<mask id="path-1-inside-1_1909_6654" fill="white">
<path fill-rule="evenodd" clip-rule="evenodd" d="M19.685 7.91007C19.686 7.91007 19.6864 7.90886 19.6857 7.90825L10.6374 0.425321C10.2675 0.119478 9.73258 0.119477 9.36276 0.42532L0.314324 7.90832C0.313612 7.90891 0.314029 7.91007 0.314953 7.91007V7.91007C0.315497 7.91007 0.315939 7.91051 0.315939 7.91106V20.8041C0.315939 21.3563 0.763654 21.8041 1.31594 21.8041H18.684C19.2363 21.8041 19.684 21.3563 19.684 20.8041V7.9111C19.684 7.91053 19.6844 7.91007 19.685 7.91007V7.91007Z"/>
</mask>
<path d="M0.314324 7.90832L1.58892 9.44956L0.314324 7.90832ZM19.6857 7.90825L20.9603 6.36701L19.6857 7.90825ZM10.6374 0.425321L9.36275 1.96656L10.6374 0.425321ZM9.36276 0.425319L8.08816 -1.11592L9.36276 0.425319ZM9.36275 1.96656L18.4111 9.44948L20.9603 6.36701L11.9119 -1.11591L9.36275 1.96656ZM1.58892 9.44956L10.6374 1.96656L8.08816 -1.11592L-0.96027 6.36709L1.58892 9.44956ZM2.31594 20.8041V7.91106H-1.68406V20.8041H2.31594ZM18.684 19.8041H1.31594V23.8041H18.684V19.8041ZM17.684 7.9111V20.8041H21.684V7.9111H17.684ZM21.684 7.9111C21.684 9.0151 20.789 9.91007 19.685 9.91007V5.91007C18.5799 5.91007 17.684 6.80596 17.684 7.9111H21.684ZM18.684 23.8041C20.3408 23.8041 21.684 22.4609 21.684 20.8041H17.684C17.684 20.2518 18.1317 19.8041 18.684 19.8041V23.8041ZM-1.68406 20.8041C-1.68406 22.4609 -0.340916 23.8041 1.31594 23.8041V19.8041C1.86822 19.8041 2.31594 20.2518 2.31594 20.8041H-1.68406ZM0.314953 9.91007C-0.79006 9.91007 -1.68406 9.01409 -1.68406 7.91106H2.31594C2.31594 6.80693 1.42105 5.91007 0.314953 5.91007V9.91007ZM-0.96027 6.36709C-2.40538 7.56218 -1.5603 9.91007 0.314953 9.91007V5.91007C2.18835 5.91007 3.0326 8.25564 1.58892 9.44956L-0.96027 6.36709ZM18.4111 9.44948C16.9658 8.25424 17.8138 5.91007 19.685 5.91007V9.91007C21.5582 9.91007 22.407 7.56349 20.9603 6.36701L18.4111 9.44948ZM11.9119 -1.11591C10.8025 -2.03344 9.19764 -2.03345 8.08816 -1.11592L10.6374 1.96656C10.2675 2.2724 9.73258 2.2724 9.36275 1.96656L11.9119 -1.11591Z" fill="#F2C400" mask="url(#path-1-inside-1_1909_6654)"/>
</svg>
