<svg width="11" height="11" viewBox="0 0 11 11" fill="none" xmlns="http://www.w3.org/2000/svg">
<path d="M5.5 2.85793C5.35634 2.85793 5.21856 2.915 5.11698 3.01658C5.0154 3.11816 4.95833 3.25594 4.95833 3.3996V5.56626C4.95833 5.70992 5.0154 5.8477 5.11698 5.94928C5.21856 6.05086 5.35634 6.10793 5.5 6.10793C5.64366 6.10793 5.78143 6.05086 5.88301 5.94928C5.9846 5.8477 6.04166 5.70992 6.04166 5.56626V3.3996C6.04166 3.25594 5.9846 3.11816 5.88301 3.01658C5.78143 2.915 5.64366 2.85793 5.5 2.85793ZM5.99833 7.5271C5.98647 7.49258 5.97008 7.45979 5.94958 7.4296L5.88458 7.34835C5.80841 7.27319 5.71168 7.22227 5.60661 7.20203C5.50153 7.18178 5.39281 7.19312 5.29416 7.2346C5.22852 7.26203 5.16807 7.3005 5.11541 7.34835C5.06521 7.39896 5.02549 7.45899 4.99854 7.52498C4.97158 7.59098 4.95792 7.66164 4.95833 7.73293C4.95919 7.80371 4.97391 7.87364 5.00166 7.93876C5.02599 8.00598 5.0648 8.06703 5.11535 8.11758C5.1659 8.16812 5.22695 8.20694 5.29416 8.23126C5.359 8.25992 5.42911 8.27472 5.5 8.27472C5.57089 8.27472 5.64099 8.25992 5.70583 8.23126C5.77305 8.20694 5.8341 8.16812 5.88464 8.11758C5.93519 8.06703 5.974 8.00598 5.99833 7.93876C6.02609 7.87364 6.04081 7.80371 6.04166 7.73293C6.04432 7.69687 6.04432 7.66066 6.04166 7.6246C6.03234 7.59006 6.01772 7.55717 5.99833 7.5271ZM5.5 0.149597C4.42868 0.149597 3.38142 0.467279 2.49066 1.06247C1.59989 1.65766 0.905625 2.50363 0.49565 3.4934C0.0856752 4.48316 -0.0215929 5.57227 0.18741 6.623C0.396414 7.67373 0.912301 8.63889 1.66984 9.39643C2.42737 10.154 3.39253 10.6698 4.44326 10.8789C5.49399 11.0879 6.5831 10.9806 7.57287 10.5706C8.56263 10.1606 9.4086 9.46637 10.0038 8.5756C10.599 7.68484 10.9167 6.63758 10.9167 5.56626C10.9167 4.85494 10.7766 4.15058 10.5043 3.4934C10.2321 2.83621 9.83314 2.23909 9.33016 1.7361C8.82718 1.23312 8.23005 0.834129 7.57287 0.561916C6.91569 0.289703 6.21132 0.149597 5.5 0.149597ZM5.5 9.8996C4.64295 9.8996 3.80514 9.64545 3.09253 9.1693C2.37991 8.69315 1.8245 8.01637 1.49652 7.22456C1.16854 6.43275 1.08273 5.56146 1.24993 4.72087C1.41713 3.88029 1.82984 3.10816 2.43587 2.50213C3.0419 1.89611 3.81402 1.4834 4.65461 1.31619C5.49519 1.14899 6.36648 1.23481 7.15829 1.56279C7.95011 1.89077 8.62688 2.44618 9.10303 3.15879C9.57918 3.87141 9.83333 4.70921 9.83333 5.56626C9.83333 6.71554 9.37679 7.81774 8.56413 8.63039C7.75147 9.44305 6.64927 9.8996 5.5 9.8996Z" fill="#F2C400"/>
</svg>
