<svg width="38" height="26" viewBox="0 0 38 26" fill="none" xmlns="http://www.w3.org/2000/svg">
<path d="M25.7428 10.5431C25.6963 10.4792 25.6579 10.4276 25.6289 10.3891C25.9618 10.1459 26.3636 9.78841 26.8135 9.37699C26.925 9.27497 27.0396 9.16952 27.1571 9.06143C27.5567 8.69384 27.9893 8.29585 28.4461 7.89922C29.6302 6.8711 30.962 5.86565 32.2661 5.44131C35.0688 4.52931 36.4412 3.32437 37.004 2.31235C37.2851 1.80682 37.3653 1.34676 37.315 0.997347C37.2655 0.654296 37.0817 0.390956 36.813 0.349991C36.4245 0.290711 35.8829 0.361943 35.2367 0.499689C34.6578 0.623099 33.9828 0.802827 33.2405 1.0005C33.1501 1.02456 33.0588 1.04888 32.9665 1.0734C31.2621 1.52619 29.2261 2.04841 27.1399 2.22214C25.5819 2.35175 23.9681 2.2925 22.4319 2.2361C22.005 2.22042 21.5841 2.20497 21.1721 2.19385C19.2868 2.14297 17.5773 2.18205 16.3656 2.72824C15.1379 3.28168 14.5855 4.30836 14.4556 5.57637C14.3263 6.83818 14.6133 8.34737 15.0654 9.89374C15.5004 11.3826 15.6737 12.3768 15.7386 12.9965C15.7711 13.3063 15.7764 13.5223 15.7738 13.6595C15.7729 13.7099 15.7709 13.7497 15.7688 13.7796C15.7621 13.7805 15.7549 13.7816 15.7474 13.7827C15.6842 13.7919 15.5917 13.8045 15.4746 13.8182C15.2405 13.8456 14.9089 13.877 14.5194 13.8933C13.7392 13.926 12.7331 13.8974 11.8159 13.6567C11.4283 13.5549 10.8667 13.3184 10.1938 13.035C10.074 12.9845 9.95077 12.9326 9.82432 12.8797C8.99248 12.5316 8.03242 12.1449 7.06593 11.8745C6.10057 11.6044 5.12024 11.4477 4.24935 11.5663C3.37411 11.6854 2.60808 12.0831 2.08502 12.9179C1.15171 14.4068 0.638968 15.9537 0.672279 17.5828C0.70559 19.2119 1.28473 20.9137 2.51909 22.7126C5.01161 26.3452 9.31878 26.0041 12.5222 24.9777C15.7061 23.9576 18.5497 23.654 21.5719 24.0849C21.9496 24.1388 22.3414 24.2096 22.7405 24.2825L22.8112 24.2955C23.1869 24.3642 23.5687 24.434 23.948 24.492C24.7531 24.6149 25.5559 24.6858 26.2834 24.577C27.0136 24.4679 27.6716 24.1771 28.1792 23.5755C28.6851 22.976 29.0327 22.0782 29.1652 20.7721C29.4306 18.1559 28.5266 15.5371 27.5629 13.579C27.0804 12.5988 26.5815 11.7812 26.2032 11.2086C26.014 10.9222 25.8548 10.697 25.7428 10.5431ZM16.0317 17.2887C16.0855 17.373 16.0856 17.373 16.0857 17.3729L16.086 17.3727L16.0867 17.3722L16.0886 17.371L16.0941 17.3672C16.0986 17.3641 16.1047 17.3597 16.1122 17.3539C16.1271 17.3424 16.1478 17.3254 16.1728 17.3021C16.223 17.2554 16.2908 17.1834 16.3667 17.079C16.5185 16.87 16.7016 16.5323 16.8405 16.0092C17.118 14.9639 17.2192 13.1788 16.5443 10.196C16.208 8.70933 15.9806 7.5703 15.8865 6.69311C15.7922 5.81345 15.8342 5.21283 16.0221 4.79351C16.2062 4.38265 16.5375 4.13154 17.0648 3.96728C17.5973 3.8014 18.3176 3.72803 19.2631 3.66838C20.7176 3.57662 21.8134 3.65578 22.884 3.73312C23.1976 3.75578 23.5091 3.77828 23.8269 3.79628C25.2299 3.87579 26.7394 3.86584 29.0569 3.38947C31.367 2.9146 33.1236 2.40063 34.259 2.0684L34.2614 2.0677C34.8315 1.90087 35.2381 1.78207 35.4817 1.7354C35.5329 1.72558 35.5748 1.7194 35.6082 1.7165C35.4438 1.94006 35.1189 2.19998 34.6141 2.46069C34.087 2.73285 33.3727 3.0014 32.4624 3.22885C31.552 3.45633 30.9827 3.51483 30.6409 3.52361C30.4703 3.52799 30.3553 3.52002 30.2812 3.51405C30.2752 3.51356 30.2692 3.51307 30.2634 3.51259C30.2351 3.51025 30.2091 3.5081 30.1898 3.5079C30.1785 3.50778 30.1607 3.50804 30.1424 3.5127C30.1242 3.51733 30.0851 3.53192 30.0658 3.57622C30.0452 3.62332 30.0661 3.66281 30.0737 3.67506C30.0829 3.68987 30.0941 3.70031 30.1008 3.7061C30.1152 3.7186 30.1331 3.73001 30.1503 3.73993C30.1862 3.7606 30.237 3.78485 30.2993 3.81083C30.4247 3.86315 30.6053 3.92605 30.8255 3.98442C31.0895 4.05439 31.4127 4.11841 31.7682 4.14941C31.5036 4.21187 31.1794 4.28197 30.8198 4.34621C29.8611 4.51747 28.6618 4.64513 27.6731 4.48175C27.6325 4.47505 27.592 4.49386 27.5709 4.52917C27.5498 4.56448 27.5525 4.60909 27.5777 4.64161L27.6568 4.58041C27.5777 4.64161 27.5777 4.64165 27.5778 4.6417L27.5779 4.64182L27.5781 4.64213L27.5788 4.64301L27.581 4.64583L27.589 4.65555C27.5958 4.66376 27.6057 4.67536 27.6187 4.68978C27.6447 4.71863 27.683 4.75885 27.7337 4.80595C27.835 4.9001 27.9862 5.02218 28.1873 5.13597C28.501 5.31338 28.9349 5.46981 29.4873 5.46987C29.2211 5.59761 28.8435 5.76367 28.3821 5.92613C27.4307 6.26112 26.1268 6.57935 24.7109 6.51748C24.6604 6.51527 24.6163 6.55105 24.6079 6.60086C24.5996 6.65068 24.6297 6.6989 24.6781 6.71326L24.7065 6.61738L24.6782 6.71327L24.6783 6.7133L24.6786 6.7134L24.6799 6.71377L24.6847 6.71518L24.7031 6.7205C24.7192 6.72512 24.7428 6.73182 24.7732 6.74021C24.834 6.75699 24.9218 6.78054 25.0304 6.8078C25.2475 6.86227 25.5481 6.93164 25.882 6.9911C26.2157 7.05051 26.5844 7.10032 26.9371 7.11517C27.1441 7.12388 27.3479 7.12069 27.5374 7.0995C27.4933 7.13765 27.4447 7.17946 27.3921 7.22432C27.1331 7.44539 26.7785 7.74016 26.3954 8.03542C26.0119 8.33098 25.6017 8.6256 25.2314 8.84724C25.0462 8.95807 24.8728 9.04958 24.7189 9.11378C24.5812 9.17122 24.4648 9.20441 24.3725 9.21286L24.3422 9.189C24.3029 9.15817 24.2454 9.113 24.172 9.05562C24.0252 8.94086 23.8152 8.77724 23.5622 8.58175C23.056 8.19082 22.3774 7.67226 21.6878 7.16205C20.9986 6.65209 20.2969 6.14942 19.745 5.79083C19.4696 5.61181 19.2288 5.46696 19.0444 5.37506C18.9528 5.32938 18.8709 5.29465 18.8034 5.2761C18.7698 5.26686 18.7355 5.2604 18.7029 5.26033C18.6714 5.26027 18.63 5.26622 18.5944 5.29392C18.5672 5.31513 18.5457 5.34529 18.5381 5.38356C18.5309 5.41957 18.5378 5.45286 18.5478 5.47918C18.5667 5.52914 18.606 5.57842 18.6497 5.62456C18.7397 5.71966 18.8878 5.84096 19.076 5.98695C19.1886 6.07425 19.3169 6.1714 19.459 6.27893C19.7978 6.53548 20.2145 6.85106 20.6816 7.2326C22.0049 8.31364 23.7167 9.91271 25.1071 12.1243C27.8913 16.553 27.8475 19.2892 27.7773 20.4813C27.7733 20.5489 27.7699 20.6183 27.7664 20.6892C27.754 20.941 27.7407 21.2109 27.6983 21.4815C27.6442 21.8267 27.544 22.1618 27.3448 22.4426C26.9537 22.994 26.1479 23.3777 24.4026 23.1256C23.9191 23.0557 23.4507 22.9783 22.9872 22.9017C21.7719 22.7009 20.5911 22.5058 19.2648 22.4678C17.4276 22.4152 15.3087 22.6631 12.4063 23.6038C9.52736 24.5368 7.48413 24.4561 5.98423 23.7981C4.4841 23.1399 3.50844 21.8961 2.78201 20.4619C2.0614 19.0392 1.88317 17.2583 2.18855 15.7737C2.49503 14.2837 3.27804 13.1297 4.44526 12.895C5.64031 12.6548 6.5198 12.957 7.51424 13.4184C7.68412 13.4973 7.85741 13.5808 8.0361 13.6669C8.9039 14.0852 9.89923 14.565 11.2513 14.8662C12.8797 15.2289 14.0799 15.2206 14.8938 15.1885C14.992 15.1846 15.0838 15.1805 15.1695 15.1766C15.4426 15.1643 15.6544 15.1547 15.8157 15.166C15.9209 15.1734 15.993 15.1892 16.0413 15.2127C16.0816 15.2322 16.1048 15.2566 16.1184 15.2904C16.1193 15.2946 16.1204 15.2987 16.1217 15.3027C16.1606 15.4173 16.1725 15.5943 16.1637 15.8062C16.1551 16.0151 16.1269 16.2466 16.0929 16.4637C16.0589 16.6804 16.0193 16.881 15.9881 17.0274C15.9725 17.1006 15.9591 17.1602 15.9496 17.2013L15.9385 17.2487L15.9356 17.2609L15.9348 17.264L15.9346 17.2647L15.9346 17.2649L15.9346 17.2649C15.9248 17.3046 15.9402 17.3462 15.9734 17.37C16.0067 17.3938 16.051 17.395 16.0855 17.373L16.0317 17.2887Z" stroke="#828282" fill="#828282" stroke-width="0.2" stroke-linejoin="round"/>
</svg>
